<svg width="20" height="14" viewBox="0 0 20 14" fill="none" xmlns="http://www.w3.org/2000/svg">
<path d="M14.5 10.5C16.22 10.5 18.25 11.3 18.5 11.78V12.5H10.5V11.78C10.75 11.3 12.78 10.5 14.5 10.5ZM14.5 9C12.67 9 9 9.92 9 11.75V14H20V11.75C20 9.92 16.33 9 14.5 9ZM7 8C4.67 8 0 9.17 0 11.5V14H7V12.5H1.5V11.5C1.5 10.87 4.29 9.34 7.82 9.5C8.24952 8.98554 8.77622 8.56078 9.37 8.25C8.58995 8.09015 7.79623 8.00642 7 8ZM7 1.5C7.29667 1.5 7.58668 1.58797 7.83335 1.7528C8.08003 1.91762 8.27229 2.15189 8.38582 2.42597C8.49935 2.70006 8.52906 3.00166 8.47118 3.29264C8.4133 3.58361 8.27044 3.85088 8.06066 4.06066C7.85088 4.27044 7.58361 4.4133 7.29264 4.47118C7.00166 4.52906 6.70006 4.49935 6.42597 4.38582C6.15189 4.27229 5.91762 4.08003 5.7528 3.83335C5.58797 3.58668 5.5 3.29667 5.5 3C5.5 2.60218 5.65804 2.22064 5.93934 1.93934C6.22064 1.65804 6.60218 1.5 7 1.5ZM7 0C6.40666 0 5.82664 0.175947 5.33329 0.505591C4.83994 0.835236 4.45542 1.30377 4.22836 1.85195C4.0013 2.40013 3.94189 3.00333 4.05764 3.58527C4.1734 4.16721 4.45912 4.70176 4.87868 5.12132C5.29824 5.54088 5.83279 5.8266 6.41473 5.94236C6.99667 6.05811 7.59987 5.9987 8.14805 5.77164C8.69623 5.54458 9.16476 5.16006 9.49441 4.66671C9.82405 4.17336 10 3.59334 10 3C10 2.20435 9.68393 1.44129 9.12132 0.87868C8.55871 0.316071 7.79565 0 7 0ZM14.5 3.5C14.6978 3.5 14.8911 3.55865 15.0556 3.66853C15.22 3.77841 15.3482 3.93459 15.4239 4.11732C15.4996 4.30004 15.5194 4.50111 15.4808 4.69509C15.4422 4.88907 15.347 5.06725 15.2071 5.20711C15.0673 5.34696 14.8891 5.4422 14.6951 5.48079C14.5011 5.51937 14.3 5.49957 14.1173 5.42388C13.9346 5.34819 13.7784 5.22002 13.6685 5.05557C13.5586 4.89112 13.5 4.69778 13.5 4.5C13.5 4.23478 13.6054 3.98043 13.7929 3.79289C13.9804 3.60536 14.2348 3.5 14.5 3.5ZM14.5 2C14.0055 2 13.5222 2.14662 13.1111 2.42133C12.7 2.69603 12.3795 3.08648 12.1903 3.54329C12.0011 4.00011 11.9516 4.50277 12.048 4.98773C12.1445 5.47268 12.3826 5.91814 12.7322 6.26777C13.0819 6.6174 13.5273 6.8555 14.0123 6.95196C14.4972 7.04843 14.9999 6.99892 15.4567 6.8097C15.9135 6.62048 16.304 6.30005 16.5787 5.88893C16.8534 5.4778 17 4.99445 17 4.5C17 3.83696 16.7366 3.20107 16.2678 2.73223C15.7989 2.26339 15.163 2 14.5 2Z" fill="white"/>
</svg>
