<svg width="20" height="20" viewBox="0 0 20 20" fill="none" xmlns="http://www.w3.org/2000/svg">
<path d="M9.99996 5.83335C10.4602 5.83335 10.8333 5.46026 10.8333 5.00002C10.8333 4.53978 10.4602 4.16669 9.99996 4.16669C9.53972 4.16669 9.16663 4.53978 9.16663 5.00002C9.16663 5.46026 9.53972 5.83335 9.99996 5.83335Z" fill="white"/>
<path d="M5 14.1667H15V15.8334H5V14.1667ZM8.33333 9.85835L10.66 12.1867L13.9367 8.90752L15 10V6.66669H11.6667L12.7583 7.72919L10.6592 9.82835L8.33333 7.50002L5 10.8334L6.17833 12.0117L8.33333 9.85835Z" fill="white"/>
<path d="M15.8333 2.49998H13.085C13.0024 2.37727 12.9134 2.25905 12.8183 2.14581L12.81 2.13581C12.1975 1.42295 11.3362 0.97054 10.4016 0.870809C10.1362 0.820733 9.86373 0.820733 9.59829 0.870809C8.66376 0.97054 7.80244 1.42295 7.18996 2.13581L7.18163 2.14581C7.08654 2.25878 6.99752 2.37672 6.91496 2.49914V2.49998H4.16663C3.50379 2.50064 2.86829 2.76424 2.39959 3.23294C1.93089 3.70164 1.66729 4.33714 1.66663 4.99998V16.6666C1.66729 17.3295 1.93089 17.965 2.39959 18.4337C2.86829 18.9024 3.50379 19.166 4.16663 19.1666H15.8333C16.4961 19.166 17.1316 18.9024 17.6003 18.4337C18.069 17.965 18.3326 17.3295 18.3333 16.6666V4.99998C18.3326 4.33714 18.069 3.70164 17.6003 3.23294C17.1316 2.76424 16.4961 2.50064 15.8333 2.49998ZM16.6666 16.6666C16.6666 16.8877 16.5788 17.0996 16.4225 17.2559C16.2663 17.4122 16.0543 17.5 15.8333 17.5H4.16663C3.94561 17.5 3.73365 17.4122 3.57737 17.2559C3.42109 17.0996 3.33329 16.8877 3.33329 16.6666V4.99998C3.33329 4.77896 3.42109 4.567 3.57737 4.41072C3.73365 4.25444 3.94561 4.16664 4.16663 4.16664H7.95829C8.05392 3.69569 8.30943 3.27228 8.68152 2.96815C9.05361 2.66403 9.51939 2.49789 9.99996 2.49789C10.4805 2.49789 10.9463 2.66403 11.3184 2.96815C11.6905 3.27228 11.946 3.69569 12.0416 4.16664H15.8333C16.0543 4.16664 16.2663 4.25444 16.4225 4.41072C16.5788 4.567 16.6666 4.77896 16.6666 4.99998V16.6666Z" fill="white"/>
</svg>
