<svg width="15" height="15" viewBox="0 0 15 15" fill="none" xmlns="http://www.w3.org/2000/svg">
<path d="M3.27209 6.84192C3.27209 6.31192 3.27209 5.93254 3.29709 5.63567C3.32084 5.34254 3.36584 5.15692 3.44209 5.00754L2.88584 4.72379C2.75709 4.97567 2.70084 5.25317 2.67334 5.58504C2.64709 5.91317 2.64709 6.32254 2.64709 6.84192H3.27209ZM3.27209 7.59192V6.84192H2.64709V7.59192H3.27209ZM2.64709 7.59192V10.7169H3.27209V7.59192H2.64709ZM2.64709 10.7169V11.9132H3.27209V10.7169H2.64709ZM2.64709 11.9132C2.64709 12.4419 3.28647 12.7069 3.66084 12.3325L3.21897 11.8907C3.22435 11.8871 3.23025 11.8843 3.23647 11.8825L3.25272 11.8838C3.25791 11.8867 3.26232 11.8909 3.26558 11.8959C3.26884 11.9009 3.27086 11.9066 3.27147 11.9125L2.64709 11.9132ZM3.66084 12.3325L4.87272 11.1207L4.43084 10.6788L3.21834 11.8913L3.66084 12.3325ZM9.3346 10.4044H5.09334V11.0294H9.3346V10.4044ZM11.169 10.2344C11.0196 10.3107 10.834 10.3557 10.5408 10.38C10.2433 10.4044 9.8646 10.4044 9.3346 10.4044V11.0294C9.8546 11.0294 10.2633 11.0294 10.5915 11.0025C10.9233 10.9757 11.2008 10.9194 11.4527 10.7913L11.169 10.2344ZM11.8515 9.55129C11.7017 9.84512 11.4628 10.0846 11.169 10.2344L11.4527 10.7913C11.8645 10.5815 12.1992 10.2468 12.409 9.83504L11.8515 9.55129ZM12.0221 7.71692C12.0221 8.24692 12.0221 8.62629 11.9971 8.92317C11.9733 9.21629 11.9283 9.40192 11.8515 9.55129L12.409 9.83504C12.5371 9.58317 12.5933 9.30567 12.6202 8.97379C12.6471 8.64567 12.6471 8.23629 12.6471 7.71692H12.0221ZM12.0221 6.84192V7.71692H12.6471V6.84192H12.0221ZM11.8515 5.00754C11.9277 5.15692 11.9733 5.34254 11.9977 5.63567C12.0221 5.93254 12.0221 6.31192 12.0221 6.84192H12.6471C12.6471 6.32192 12.6471 5.91317 12.6202 5.58504C12.5933 5.25317 12.5371 4.97567 12.409 4.72379L11.8515 5.00754ZM11.169 4.32442C11.4629 4.47435 11.7018 4.71349 11.8515 5.00754L12.409 4.72379C12.1992 4.31204 11.8645 3.97729 11.4527 3.76754L11.169 4.32442ZM9.3346 4.15442C9.8646 4.15442 10.2433 4.15442 10.5408 4.17942C10.834 4.20317 11.0196 4.24817 11.169 4.32442L11.4527 3.76754C11.2008 3.63879 10.9233 3.58317 10.5915 3.55567C10.2633 3.52942 9.85397 3.52942 9.3346 3.52942V4.15442ZM5.9596 4.15442H9.3346V3.52942H5.9596V4.15442ZM4.12522 4.32442C4.27459 4.24879 4.46022 4.20317 4.75334 4.17879C5.05022 4.15442 5.4296 4.15442 5.9596 4.15442V3.52942C5.43959 3.52942 5.03084 3.52942 4.70272 3.55629C4.37084 3.58317 4.09334 3.63942 3.84147 3.76754L4.12522 4.32442ZM3.44209 5.00754C3.59192 4.71339 3.83107 4.47425 4.12522 4.32442L3.84147 3.76754C3.42981 3.97713 3.0957 4.31228 2.88584 4.72379L3.44209 5.00754ZM4.87272 11.1207C4.93129 11.0623 5.01062 11.0294 5.09334 11.0294V10.4044C4.84479 10.4046 4.60649 10.5036 4.43084 10.6794L4.87272 11.1207Z" fill="white"/>
<path d="M5.45959 6.34192H9.83459M5.45959 8.21692H8.58459" stroke="white" stroke-linecap="round" stroke-linejoin="round"/>
</svg>
