<svg width="15" height="15" viewBox="0 0 15 15" fill="none" xmlns="http://www.w3.org/2000/svg">
<path fill-rule="evenodd" clip-rule="evenodd" d="M2.03125 6.26875C2.03125 4.58125 3.5125 3.28125 5.25 3.28125C6.14562 3.28125 6.93437 3.70125 7.5 4.245C8.06563 3.70125 8.85375 3.28125 9.75 3.28125C11.4875 3.28125 12.9688 4.58125 12.9688 6.26875C12.9688 7.425 12.4756 8.44125 11.7925 9.30125C11.1112 10.1588 10.2188 10.8869 9.365 11.4787C9.03813 11.705 8.70875 11.9131 8.40625 12.0669C8.12313 12.2112 7.79688 12.3438 7.5 12.3438C7.20312 12.3438 6.8775 12.2112 6.59375 12.0669C6.2621 11.8916 5.94206 11.6951 5.63563 11.4787C4.78125 10.8869 3.88937 10.1588 3.2075 9.30125C2.52437 8.44125 2.03125 7.425 2.03125 6.26875ZM5.25 4.21875C3.95 4.21875 2.96875 5.175 2.96875 6.26875C2.96875 7.14562 3.34125 7.9625 3.94125 8.7175C4.5425 9.47375 5.35188 10.1419 6.16938 10.7081C6.47875 10.9225 6.76937 11.1044 7.01937 11.2319C7.28687 11.3681 7.44187 11.4062 7.5 11.4062C7.55813 11.4062 7.71313 11.3681 7.98125 11.2312C8.27588 11.0759 8.55985 10.9012 8.83125 10.7081C9.64813 10.1419 10.4575 9.47437 11.0588 8.7175C11.6588 7.9625 12.0312 7.14562 12.0312 6.26875C12.0312 5.175 11.05 4.21875 9.75 4.21875C9.00375 4.21875 8.30625 4.66438 7.87188 5.23063C7.8281 5.28766 7.7718 5.33387 7.70732 5.36567C7.64283 5.39747 7.5719 5.41401 7.5 5.41401C7.4281 5.41401 7.35717 5.39747 7.29268 5.36567C7.2282 5.33387 7.1719 5.28766 7.12812 5.23063C6.69375 4.66438 5.99687 4.21875 5.25 4.21875Z" fill="white"/>
</svg>
